# xmcd
#
# Track frame offsets:
# 150
# 18352
# 31110
# 48457
# 62092
# 78870
# 97845
# 108800
# 125187
# 137027
# 154705
# 171435
# 192070
# 206952
# 221802
# 242495
# 252132
# 269610
# 284462
# 296440
#
# Disc length: 4102 seconds
#
#
# Revision: 0
# Processed by: cddbd v1.5PL3 Copyright (c) Steve Scherf et al.
# Submitted via: FreeRIP 2.52 
#
DISCID=23100414
DTITLE=Various Irish - Emerald Love Songs
DYEAR=1998
DGENRE=Irish
TTITLE0=Mary From Dungloe - Daniel O'Donnell
TTITLE1=Just Lovin' You - Mary Duff
TTITLE2=The Nearest To Perfect - Michael English
TTITLE3=Irsih Eyes - Dominic Kirwan
TTITLE4=More Than Yesterday - Frank McCaffrey
TTITLE5=Love You Every Second - Charlie Landsborough
TTITLE6=Eighteen Yellow Roses - Sean O'Farrell
TTITLE7=I'll Be There Mary Dear - Mick Flavin
TTITLE8=Blue Eyes Crying In The Rain - Jimmy Buckley
TTITLE9=Eileen Mc Manus - Daniel O'Donnell and Mary Duff
TTITLE10=When You're Not A Dream - Charlie Lanndsborough
TTITLE11=Back Home Again - John Hogan
TTITLE12=Broken Hearts Always Mend - Daniel O'Donnell
TTITLE13=Those Brown Eyes - Sean O'Farrell
TTITLE14=Limerick You're A Lady - Dominic Kirwan
TTITLE15=I Dreamed Of An Old Love Affair - Michael English
TTITLE16=Maggie - Mary Duff
TTITLE17=A Bunch Of Bright Red Roses - Eamon McCann
TTITLE18=You're The Reason - Mick Flavin
TTITLE19=Love Thee Dearest - Frank McCaffrey
EXTD=
EXTT0=
EXTT1=
EXTT2=
EXTT3=
EXTT4=
EXTT5=
EXTT6=
EXTT7=
EXTT8=
EXTT9=
EXTT10=
EXTT11=
EXTT12=
EXTT13=
EXTT14=
EXTT15=
EXTT16=
EXTT17=
EXTT18=
EXTT19=
PLAYORDER=
